<svg width="400" height="150" viewBox="0 0 1339 769" fill="none" xmlns="http://www.w3.org/2000/svg">
    <rect width="1339" height="769" fill="white"/>
    <g filter="url(#filter0_b)">
        <path d="M624.163 467.301C612.008 465.105 602.501 457.8 596.991 446.422L594.271 440.806L593.714 431.873C592.917 419.103 591.443 411.954 588.346 405.843C586.727 402.647 582.616 397.273 581.002 396.243C580.268 395.774 578.977 394.714 578.135 393.888C576.158 391.947 569.467 388.817 564.599 387.556C560.112 386.393 552.045 385.411 546.997 385.412C540.117 385.414 532.041 382.714 526.253 378.474C522.925 376.036 518.068 370.715 516.221 367.482C513.469 362.666 511.935 357.194 511.664 351.22C511.346 344.235 512.304 339.676 515.415 333.354C517.459 329.203 518.478 327.844 522.493 323.911C530.273 316.291 535.605 314.268 550.06 313.452C558.783 312.96 564.207 311.962 569.713 309.837C573.978 308.191 578.58 305.301 579.412 303.746C579.712 303.185 580.276 302.727 580.666 302.727C581.834 302.727 585.929 297.628 588.047 293.539C591.763 286.361 592.939 280.51 591.74 275.162C591.457 273.899 590.971 269.821 590.661 266.1C589.338 250.234 584.488 239.621 575.468 232.852C571.878 230.158 568.407 228.535 562.311 226.703C557.54 225.268 552.402 224.664 544.7 224.633C535.178 224.594 532.519 224.069 526.366 221.016C508.107 211.954 500.892 190.841 509.817 172.589C511.774 168.586 512.92 167.02 516.569 163.364C523.843 156.075 530.07 153.394 541.612 152.583C562.158 151.138 573.839 144.784 580.422 131.469C583.609 125.022 584.515 120.386 585.011 107.988C585.488 96.0672 586.095 93.1863 589.527 86.5486C592.336 81.1165 599.278 74.3851 604.934 71.61C611.206 68.5325 615.047 67.7685 622.8 68.0561C629.553 68.3066 631.358 68.76 638.256 71.9391C643.167 74.2023 649.835 80.9235 652.764 86.5626C655.011 90.8891 656.697 96.1866 657.258 100.686C658.06 107.113 655.378 117.167 651.176 123.488C648.623 127.328 641.039 134.787 639.687 134.787C639.215 134.787 638.61 135.005 638.343 135.272C637.69 135.926 631.463 138.247 628.783 138.836C627.598 139.097 623.425 139.574 619.51 139.898C596.8 141.773 584.483 150.831 579.707 169.17C578.514 173.748 577.74 186.502 578.37 191.192C578.671 193.438 579.017 196.259 579.138 197.461C579.54 201.456 581.473 207.402 583.891 212.086C587.918 219.886 594.753 225.804 603.14 228.751C609.306 230.918 612.983 231.4 624.331 231.525C636.476 231.659 638.664 232.032 645.104 235.069C647.124 236.021 650.316 237.967 652.199 239.392C654.081 240.817 655.817 241.983 656.056 241.983C656.295 241.983 656.49 242.212 656.49 242.492C656.49 242.772 657.548 244.437 658.842 246.192C664.157 253.407 665.52 257.853 666.471 271.079C667.285 282.41 668.315 287.15 671.297 293.284C675.036 300.974 680.241 306.082 688.055 309.729C693.962 312.486 699.301 313.644 704.204 313.234C706.458 313.045 709.998 312.754 712.071 312.587C714.264 312.41 717.628 312.56 720.112 312.947C724.072 313.563 724.707 313.531 728.848 312.505C743.534 308.865 752.994 299.419 756.789 284.606C757.221 282.921 757.914 277.035 758.33 271.524C759.336 258.2 760.866 253.238 766.049 246.494C770.803 240.309 776.833 236.164 784.615 233.735C790.082 232.028 799.598 232.032 804.778 233.744C811.174 235.858 815.153 238.294 819.879 242.991C823.545 246.635 824.647 248.137 826.628 252.194C831.736 262.652 831.837 272.804 826.947 284.03C825.481 287.394 824.448 288.807 820.602 292.708C812.428 300.999 806.354 303.545 793.037 304.26C783.926 304.749 779.045 305.564 773.391 307.54C767.892 309.462 764.473 311.642 760.046 316.049C756.93 319.152 755.679 320.886 753.788 324.727C750.184 332.047 749.23 336.289 749.322 344.585C749.452 356.218 750.6 363.073 753.598 370.108C757.775 379.909 763.615 385.728 773.076 389.516C778.741 391.785 783.404 392.605 793.548 393.116C802.927 393.588 808.912 394.42 810.189 395.431C810.582 395.742 812.571 396.862 814.609 397.921C819.093 400.251 825.86 407.055 828.343 411.731C833.365 421.189 834.164 431.768 830.597 441.543C826.847 451.818 818.88 459.512 807.934 463.428C804.67 464.596 803.483 464.742 797.121 464.755C790.688 464.768 789.567 464.632 785.891 463.393C780.017 461.413 775.721 458.718 771.276 454.224C764.481 447.353 761.646 440.351 760.884 428.555C760.06 415.795 757.632 407.217 752.938 400.48C751.497 398.412 751.052 397.939 746.714 393.864C742.926 390.305 735.633 387.082 728.118 385.644C724.671 384.984 723.626 384.995 718.39 385.749C713.477 386.455 711.748 386.497 707.737 386.004C701.347 385.219 695.51 386.525 687.883 390.449C682.744 393.094 676.692 399.251 674.259 404.309C670.276 412.591 669.299 416.854 668.763 428.3C668.246 439.325 667.851 441.28 664.898 447.442C661.238 455.08 655.776 460.555 648.068 464.309C640.746 467.875 632.825 468.866 624.163 467.301ZM642.756 394.985C646.868 394.665 655.422 391.807 659.313 389.453C667.553 384.468 672.847 376.946 675.679 366.195C677.233 360.295 676.617 342.303 674.581 334.12C669.586 314.046 655.455 304.593 629.986 304.286C626.498 304.244 623.441 304.084 623.193 303.93C622.336 303.401 613.858 304.9 609.273 306.391C596.865 310.426 588.524 319.756 584.939 333.61C583.863 337.766 583.753 339.274 583.779 349.434C583.811 361.578 584.418 365.609 587.276 372.641C592.192 384.739 603.141 392.676 617.927 394.859C621.909 395.447 635.911 395.518 642.756 394.985Z"
              fill="#A6E2DD"/>
        <path d="M628.656 467.6C618.358 466.196 610.682 462.174 604.952 455.18C595.128 443.189 593.765 426.918 601.482 413.751C604.311 408.924 609.866 403.459 614.632 400.812C620.263 397.686 623.965 396.697 632.094 396.151C635.979 395.89 639.401 395.526 639.698 395.342C639.996 395.158 641.576 394.939 643.21 394.855C646.883 394.666 655.439 391.796 659.312 389.453C667.504 384.498 672.774 377.029 675.665 366.279C677.483 359.52 677.04 341.486 674.851 333.099C671.882 321.726 664.959 313.08 655.214 308.579C648.727 305.583 643.125 304.405 633.264 303.962C618.202 303.286 616.572 303.028 611.434 300.513C604.264 297.004 598.306 291.42 594.905 285.024C593.498 282.378 592.492 276.767 591.626 266.74C590.313 251.529 586.885 242.696 579.424 235.294C576.386 232.28 574.454 230.883 570.774 229.041C568.168 227.736 565.53 226.669 564.913 226.669C564.296 226.669 563.573 226.457 563.306 226.198C562.182 225.107 554.099 224.015 544.189 223.616C538.434 223.385 533.03 222.974 532.181 222.704C528.748 221.61 522.485 218.119 519.415 215.587C505.828 204.379 502.887 183.892 512.739 169.073C519.386 159.074 528.743 154.234 543.424 153.198C566.485 151.572 579.455 142.016 584.347 123.046C585.365 119.099 585.679 116.203 586.031 107.477C586.515 95.5149 586.907 93.6351 590.288 87.0589C593.275 81.2481 599.209 75.4068 605.016 72.5605C611.118 69.5697 614.843 68.7055 621.524 68.7305C627.766 68.7539 630.922 69.4827 636.876 72.2766C643.684 75.4716 650.384 82.5152 653.481 89.7353C655.009 93.2956 656.482 99.9086 656.486 103.221C656.495 110.515 653.668 118.917 649.219 124.818C642.488 133.744 632.976 138.28 619.304 139.082C610.012 139.628 602.184 141.774 595.664 145.564C586.86 150.68 581.706 158.051 578.57 170.008C577.345 174.681 577.053 190.671 578.08 196.807C579.893 207.631 583.183 214.629 589.36 220.799C593.893 225.326 596.636 227.154 602.054 229.257C608.182 231.636 613.219 232.31 624.343 232.238C634.757 232.171 636.304 232.389 642.87 234.845C645.542 235.845 651.552 239.556 654.214 241.85C656.381 243.717 660.146 248.809 661.823 252.14C664.293 257.043 665.122 260.779 665.957 270.752C666.898 282.005 667.101 283.327 668.588 287.91C672.269 299.253 679.668 307.131 690.584 311.329C697.256 313.895 700.027 314.225 706.272 313.201C709.782 312.625 712.95 312.418 715.343 312.607C728.12 313.615 727.368 313.641 732.3 312.012C744.085 308.12 752.166 300.183 755.944 288.788C757.777 283.261 758.348 279.624 759.05 269.032C759.611 260.572 760.976 255.364 763.912 250.489C768.906 242.196 775.314 237.172 784.627 234.248C790.114 232.525 799.624 232.522 804.777 234.242C811.013 236.323 815.164 238.848 819.599 243.259C826.963 250.583 830.42 259.584 829.89 270.058C829.421 279.333 826.384 286.391 820.16 292.668C812.433 300.462 806.055 303.069 793.037 303.756C784.272 304.219 779.287 305.058 773.384 307.066C762.396 310.803 754.955 318.472 750.82 330.319C749.185 335.004 749.14 335.357 749.215 342.798C749.343 355.558 750.515 362.857 753.6 370.107C757.768 379.902 763.613 385.726 773.075 389.515C778.749 391.787 783.413 392.605 793.547 393.106C805.065 393.674 807.771 394.249 813.636 397.371C817.439 399.395 819.151 400.725 822.536 404.282C828.628 410.685 831.489 416.641 832.555 425.135C834.647 441.826 824.59 457.467 807.934 463.427C804.669 464.595 803.483 464.741 797.121 464.754C790.687 464.767 789.567 464.631 785.891 463.392C780.017 461.412 775.721 458.717 771.276 454.223C764.48 447.352 761.645 440.35 760.884 428.554C760.46 421.999 759.274 414.736 757.977 410.759C753.422 396.79 742.784 388.08 727.049 385.438C724.249 384.967 722.054 384.949 718.116 385.364C715.245 385.666 710.024 385.868 706.515 385.814C700.736 385.724 699.725 385.85 695.795 387.151C688.679 389.506 684.777 391.819 680.219 396.383C675.809 400.799 673.758 404.15 671.62 410.433C669.559 416.487 669.196 418.775 668.745 428.554C668.249 439.305 667.844 441.293 664.898 447.441C661.23 455.094 655.751 460.579 648.067 464.287C641.78 467.322 635.045 468.471 628.656 467.6V467.6ZM563.173 379.423C563.268 378.932 563.684 378.53 564.097 378.53C564.511 378.53 564.926 378.932 565.021 379.423C565.142 380.05 564.866 380.316 564.097 380.316C563.328 380.316 563.053 380.05 563.173 379.423ZM578.39 364.555C578.39 363.911 579.888 362.758 580.252 363.121C580.775 363.644 579.995 365.003 579.172 365.003C578.742 365.003 578.39 364.801 578.39 364.555ZM532.726 318.586C532.348 317.976 533.309 317.37 533.989 317.791C534.559 318.143 534.185 319.062 533.47 319.062C533.222 319.062 532.887 318.848 532.726 318.586Z"
              fill="#92D6E2"/>
        <path d="M628.657 467.6C618.36 466.196 610.684 462.174 604.954 455.18C595.129 443.19 593.766 426.918 601.484 413.751C604.313 408.925 609.868 403.459 614.634 400.812C620.264 397.686 623.967 396.698 632.095 396.151C635.98 395.89 639.402 395.526 639.7 395.342C639.997 395.158 641.577 394.939 643.211 394.855C646.884 394.667 655.441 391.796 659.314 389.453C667.505 384.498 672.776 377.029 675.667 366.279C677.484 359.52 677.042 341.486 674.853 333.099C672.042 322.33 665.325 313.584 656.388 309.055C651.372 306.514 643.859 304.614 636.535 304.035C635.298 303.937 631.039 303.605 627.071 303.296C615.272 302.379 609.736 299.975 602.353 292.564C599.074 289.272 597.452 287.142 595.845 284.017L593.705 279.856L593.733 273.043C593.777 262.564 594.581 257.914 597.281 252.54C605.851 235.475 623.089 228.429 641.196 234.587C645.968 236.21 652.632 240.073 653.581 241.765C653.806 242.166 654.265 242.501 654.602 242.51C655.549 242.536 659.948 248.413 661.855 252.2C664.293 257.041 665.126 260.808 665.958 270.752C666.899 282.005 667.102 283.327 668.589 287.91C672.27 299.253 679.67 307.131 690.585 311.329C697.257 313.895 700.029 314.225 706.274 313.201C709.783 312.626 712.952 312.418 715.345 312.607C728.122 313.615 727.37 313.641 732.302 312.012C744.086 308.12 752.167 300.183 755.945 288.788C757.778 283.261 758.35 279.625 759.052 269.032C759.612 260.572 760.978 255.364 763.913 250.489C768.907 242.197 775.315 237.172 784.629 234.248C790.116 232.525 799.625 232.522 804.779 234.242C811.014 236.323 815.165 238.848 819.6 243.259C826.965 250.583 830.421 259.584 829.892 270.058C829.422 279.333 826.385 286.391 820.161 292.668C812.434 300.462 806.056 303.07 793.038 303.756C784.274 304.219 779.288 305.058 773.385 307.066C762.398 310.803 754.957 318.472 750.822 330.319C749.187 335.005 749.141 335.357 749.216 342.798C749.344 355.558 750.516 362.857 753.601 370.107C757.769 379.902 763.614 385.726 773.077 389.515C778.751 391.787 783.414 392.605 793.549 393.106C805.066 393.674 807.773 394.249 813.637 397.371C817.44 399.395 819.152 400.725 822.537 404.283C828.629 410.685 831.491 416.641 832.556 425.136C834.649 441.826 824.591 457.468 807.935 463.427C804.671 464.595 803.484 464.741 797.122 464.754C790.689 464.767 789.568 464.631 785.892 463.392C780.018 461.412 775.722 458.717 771.277 454.223C764.482 447.352 761.647 440.35 760.885 428.554C760.462 421.999 759.275 414.736 757.979 410.759C753.424 396.79 742.785 388.08 727.051 385.438C724.25 384.967 722.056 384.949 718.118 385.364C715.246 385.666 710.025 385.868 706.516 385.814C700.737 385.724 699.726 385.85 695.796 387.151C688.681 389.506 684.778 391.819 680.22 396.383C675.81 400.799 673.759 404.15 671.621 410.433C669.561 416.487 669.198 418.775 668.746 428.554C668.25 439.305 667.845 441.293 664.899 447.441C661.232 455.094 655.752 460.579 648.069 464.288C641.782 467.322 635.046 468.471 628.657 467.6L628.657 467.6Z"
              fill="#A8E0C0"/>
        <path d="M624.098 466.327C622.145 465.92 618.699 464.697 616.442 463.607C609.173 460.101 604.345 455.169 600.615 447.441C597.693 441.387 597.042 438.42 597.085 431.362C597.115 426.507 597.347 424.805 598.426 421.521C602.079 410.407 610.217 402.198 621.651 398.096C623.723 397.352 626.617 396.926 631.479 396.65C641.081 396.104 645.752 395.342 651.491 393.387C664.516 388.949 672.083 380.737 675.999 366.789C676.775 364.026 677.093 360.67 677.4 351.986C677.826 339.953 678.215 337.839 681.024 332.272C685.334 323.732 694.854 315.812 702.432 314.46C703.976 314.185 706.274 313.739 707.537 313.47C713.512 312.197 723.948 313.634 730.297 316.605C736.703 319.603 744.501 328.482 747.248 335.907C747.612 336.889 748.249 341.943 748.665 347.137C749.533 357.974 750.047 361.398 751.494 365.986C757.347 384.543 771.251 393.506 794.315 393.589C806.392 393.633 814.507 396.766 821.897 404.24C825.325 407.708 826.708 409.571 828.389 412.986C835.336 427.1 832.856 443.334 822.109 454.081C807.278 468.911 783.277 467.905 769.69 451.882C764.431 445.68 762.071 439.043 761.397 428.554C760.532 415.1 757.648 405.659 752.354 398.948C745.496 390.256 734.895 385.178 722.34 384.57C719.392 384.427 713.19 384.538 708.558 384.816C701.788 385.222 699.284 385.592 695.796 386.699C682.902 390.793 675.173 398.237 671.039 410.543C669.126 416.241 668.774 418.532 668.272 428.554C667.732 439.34 667.328 441.3 664.367 447.506C661.765 452.961 656.349 459.127 651.712 461.915C647.744 464.301 642.937 466.16 640.186 466.374C631.804 467.026 627.395 467.013 624.098 466.327V466.327ZM620.504 302.705C613.823 301.544 608.131 298.364 602.353 292.564C599.074 289.271 597.452 287.142 595.845 284.017L593.705 279.856L593.733 273.042C593.777 262.564 594.581 257.914 597.281 252.54C604.551 238.063 617.892 230.72 633.215 232.759C647.974 234.723 658.618 243.266 663.469 257.041C664.833 260.915 664.905 261.558 664.863 269.547L664.818 277.97L662.715 281.707C657.717 290.592 653.122 295.382 645.706 299.442C643.689 300.547 641.943 301.812 641.827 302.253C641.646 302.944 640.32 303.062 632.336 303.102C627.232 303.128 621.908 302.949 620.504 302.705ZM762.921 272.099C763.095 271.819 763.453 271.589 763.717 271.589C763.981 271.589 764.198 271.819 764.198 272.099C764.198 272.38 763.84 272.61 763.402 272.61C762.964 272.61 762.748 272.38 762.921 272.099Z"
              fill="#B2E49C"/>
        <path d="M624.098 466.293C622.145 465.905 618.699 464.697 616.442 463.607C609.173 460.101 604.345 455.169 600.615 447.441C597.693 441.387 597.042 438.42 597.085 431.362C597.115 426.507 597.347 424.805 598.426 421.521C601.482 412.224 607.951 404.598 616.227 400.537C622.583 397.419 625.859 396.651 632.809 396.651C637.915 396.651 638.899 396.805 642.105 398.11C651.403 401.894 657.534 407.454 661.604 415.793C670.358 433.73 663.158 454.953 645.296 463.863C639.269 466.869 631.492 467.761 624.098 466.293ZM701.536 384.37C694.909 383.063 684.61 374.541 680.849 367.253C678.05 361.829 677.42 358.739 677.42 350.429C677.42 342.258 678.327 337.614 680.932 332.454C684.135 326.11 690.644 319.514 696.773 316.403C700.027 314.75 700.106 314.738 710.27 314.324C722.113 313.841 725.187 314.186 730.234 316.564C734.857 318.743 742.207 325.919 744.815 330.802C748.076 336.907 748.072 336.887 748.078 347.392C748.084 356.578 748.012 357.306 746.711 361.174C743.699 370.126 737.1 378.017 729.37 381.909L725.148 384.035L717.236 384.449C707.673 384.95 704.392 384.933 701.536 384.37ZM620.504 302.705C613.823 301.544 608.131 298.364 602.353 292.564C599.074 289.271 597.452 287.142 595.845 284.017L593.705 279.856L593.733 273.042C593.777 262.564 594.581 257.914 597.281 252.54C604.551 238.063 617.892 230.72 633.215 232.759C647.974 234.723 658.618 243.266 663.469 257.041C664.833 260.915 664.905 261.558 664.863 269.547L664.818 277.97L662.715 281.707C657.717 290.592 653.122 295.382 645.706 299.442C643.689 300.547 641.943 301.812 641.827 302.253C641.646 302.944 640.32 303.062 632.336 303.102C627.232 303.128 621.908 302.949 620.504 302.705ZM762.921 272.099C763.095 271.819 763.453 271.589 763.717 271.589C763.981 271.589 764.198 271.819 764.198 272.099C764.198 272.38 763.84 272.61 763.402 272.61C762.964 272.61 762.748 272.38 762.921 272.099Z"
              fill="#85D6AF"/>
        <path d="M655.726 455.864C655.899 455.583 656.142 455.354 656.266 455.354C656.39 455.354 656.491 455.583 656.491 455.864C656.491 456.145 656.248 456.375 655.951 456.375C655.653 456.375 655.552 456.145 655.726 455.864ZM696.307 382.3C692.862 380.574 691.01 379.173 687.317 375.499C683.463 371.666 682.282 370.092 680.426 366.315L678.186 361.757L678.187 351.256C678.188 341.144 678.238 340.618 679.554 337.012C681.578 331.467 683.839 327.981 688.401 323.367C691.654 320.078 693.407 318.778 696.964 317.015L701.437 314.798L710.835 314.335C721.754 313.796 723.876 314.09 729.827 316.968C732.851 318.43 734.83 319.893 737.912 322.945C742.33 327.32 744.707 330.912 746.743 336.294C747.948 339.48 748.046 340.379 748.066 348.413C748.086 356.516 747.996 357.361 746.712 361.174C744.762 366.967 742.082 371.242 737.538 375.814C734.619 378.751 732.543 380.311 729.554 381.814L725.515 383.845L713.081 384.159L700.646 384.473L696.307 382.3H696.307ZM620.504 302.725C613.74 301.497 608.116 298.349 602.353 292.564C599.074 289.272 597.452 287.142 595.845 284.017L593.705 279.856L593.733 273.043C593.777 262.564 594.581 257.914 597.281 252.54C602.966 241.22 612.556 234.037 623.721 232.736C631.449 231.835 636.966 232.769 644.135 236.19C655.7 241.709 663.19 253.99 663.235 267.506C663.257 274.125 662.411 278.25 660.044 283.075C655.526 292.28 647.112 299.375 637.604 301.997C634.211 302.932 624.035 303.366 620.504 302.725H620.504Z"
              fill="#62CAC3"/>
        <path d="M655.725 455.864C655.899 455.583 656.142 455.354 656.266 455.354C656.39 455.354 656.491 455.583 656.491 455.864C656.491 456.145 656.248 456.375 655.951 456.375C655.653 456.375 655.552 456.145 655.725 455.864ZM696.307 382.299C692.862 380.574 691.01 379.173 687.317 375.499C683.463 371.666 682.282 370.092 680.425 366.315L678.186 361.756L678.187 351.256C678.188 341.144 678.238 340.618 679.554 337.012C681.578 331.467 683.839 327.981 688.401 323.367C691.654 320.078 693.406 318.778 696.964 317.015L701.437 314.798L710.835 314.335C721.754 313.796 723.876 314.09 729.827 316.968C732.851 318.43 734.83 319.893 737.912 322.945C742.33 327.32 744.707 330.912 746.742 336.294C747.948 339.48 748.046 340.379 748.066 348.413C748.086 356.516 747.996 357.361 746.712 361.174C744.761 366.967 742.082 371.242 737.538 375.814C734.619 378.751 732.543 380.311 729.554 381.814L725.515 383.845L713.08 384.159L700.646 384.473L696.307 382.299H696.307Z"
              fill="#85D493"/>
    </g>
    <path d="M245.959 630.671H204.936L196.939 658.222H164.434L206.587 532.805H245.611L287.765 658.222H253.868L245.959 630.671ZM211.106 607.725H239.701L225.795 559.401H225.1L211.106 607.725ZM390.236 658.222H360.251V639.97H359.643C357.441 646.286 353.761 651.182 348.604 654.659C343.39 658.135 337.161 659.874 329.918 659.874C319.314 659.874 310.797 656.658 304.365 650.226C297.702 643.679 294.37 634.785 294.37 623.544V561.487H325.138V616.764C325.138 622.501 326.731 626.962 329.918 630.149C332.931 633.22 337.016 634.756 342.173 634.756C347.214 634.756 351.328 633.046 354.515 629.628C357.759 626.151 359.382 621.632 359.382 616.069V561.487H390.236V658.222ZM444.21 540.106V561.487H461.68V584.259H444.21V625.543C444.21 632.322 447.947 635.712 455.422 635.712C457.566 635.712 459.652 635.567 461.68 635.277V657.179C458.145 657.991 453.626 658.396 448.121 658.396C435.721 658.396 426.827 656.31 421.438 652.138C416.108 648.024 413.442 641.216 413.442 631.714V584.259H400.492V561.487H413.442V540.106H444.21ZM520.607 660.308C505.253 660.308 493.229 655.876 484.538 647.01C475.731 638.087 471.327 625.688 471.327 609.811C471.327 594.225 475.789 581.912 484.712 572.873C493.519 563.892 505.484 559.401 520.607 559.401C535.788 559.401 547.783 563.863 556.59 572.786C565.455 581.767 569.888 594.109 569.888 609.811C569.888 625.746 565.484 638.174 556.677 647.097C547.985 655.905 535.962 660.308 520.607 660.308ZM520.607 637.624C526.286 637.624 530.689 635.219 533.818 630.41C537.063 625.543 538.686 618.677 538.686 609.811C538.686 601.178 537.063 594.37 533.818 589.386C530.574 584.519 526.17 582.086 520.607 582.086C514.987 582.086 510.583 584.519 507.396 589.386C504.152 594.312 502.529 601.12 502.529 609.811C502.529 618.677 504.123 625.543 507.31 630.41C510.496 635.219 514.929 637.624 520.607 637.624ZM635.247 532.805C654.252 532.805 668.999 538.136 679.486 548.798C690.032 559.575 695.305 574.901 695.305 594.775C695.305 614.765 690.032 630.352 679.486 641.535C668.941 652.66 654.194 658.222 635.247 658.222H584.055V532.805H635.247ZM615.952 632.496H630.988C652.253 632.496 662.886 619.951 662.886 594.862C662.886 583.158 660.104 574.148 654.542 567.832C648.979 561.632 641.128 558.532 630.988 558.532H615.952V632.496ZM754.58 581.303C749.655 581.303 745.512 582.955 742.151 586.258C738.791 589.56 736.908 593.79 736.502 598.947H772.484C772.195 593.616 770.427 589.329 767.183 586.084C763.88 582.897 759.679 581.303 754.58 581.303ZM800.992 627.802C799.486 637.711 794.618 645.591 786.391 651.443C778.105 657.353 767.704 660.308 755.188 660.308C739.892 660.308 727.897 655.876 719.206 647.01C710.515 638.145 706.169 625.919 706.169 610.333C706.169 594.746 710.486 582.346 719.119 573.134C727.753 563.979 739.428 559.401 754.146 559.401C768.573 559.401 780.104 563.776 788.737 572.525C797.313 581.332 801.601 593.095 801.601 607.812V616.591H736.154V618.503C736.154 624.413 737.951 629.193 741.543 632.844C745.135 636.552 749.829 638.406 755.623 638.406C764.836 638.406 770.688 634.872 773.18 627.802H800.992ZM874.695 560.183C886.921 560.183 896.424 564.529 903.203 573.22C910.04 581.912 913.459 594.109 913.459 609.811C913.459 625.514 910.069 637.711 903.29 646.402C896.569 655.151 887.153 659.526 875.043 659.526C860.499 659.526 850.62 653.587 845.405 641.709H844.797V687.686H814.029V561.487H844.623V578.435H845.231C847.665 572.699 851.46 568.237 856.617 565.051C861.774 561.806 867.8 560.183 874.695 560.183ZM863.31 635.277C868.988 635.277 873.507 632.988 876.868 628.411C880.229 623.775 881.909 617.576 881.909 609.811C881.909 602.105 880.229 595.963 876.868 591.385C873.45 586.75 868.93 584.432 863.31 584.432C857.689 584.432 853.17 586.75 849.751 591.385C846.39 596.021 844.71 602.192 844.71 609.898C844.71 617.663 846.39 623.833 849.751 628.411C853.112 632.988 857.631 635.277 863.31 635.277ZM926.496 526.548H957.264V658.222H926.496V526.548ZM1019.67 660.308C1004.31 660.308 992.29 655.876 983.599 647.01C974.791 638.087 970.388 625.688 970.388 609.811C970.388 594.225 974.849 581.912 983.772 572.873C992.58 563.892 1004.54 559.401 1019.67 559.401C1034.85 559.401 1046.84 563.863 1055.65 572.786C1064.52 581.767 1068.95 594.109 1068.95 609.811C1068.95 625.746 1064.54 638.174 1055.74 647.097C1047.05 655.905 1035.02 660.308 1019.67 660.308ZM1019.67 637.624C1025.35 637.624 1029.75 635.219 1032.88 630.41C1036.12 625.543 1037.75 618.677 1037.75 609.811C1037.75 601.178 1036.12 594.37 1032.88 589.386C1029.63 584.519 1025.23 582.086 1019.67 582.086C1014.05 582.086 1009.64 584.519 1006.46 589.386C1003.21 594.312 1001.59 601.12 1001.59 609.811C1001.59 618.677 1003.18 625.543 1006.37 630.41C1009.56 635.219 1013.99 637.624 1019.67 637.624ZM1093.89 693.596C1087 693.596 1083.26 693.538 1082.68 693.423V670.13C1082.97 670.188 1084.77 670.217 1088.07 670.217C1098.27 670.217 1103.89 667.377 1104.93 661.699L1105.37 659.005L1072.34 561.487H1106.32L1124.14 634.929H1124.75L1142.56 561.487H1175.07L1143.96 658.049C1139.84 670.912 1133.93 680.067 1126.22 685.513C1118.58 690.902 1107.8 693.596 1093.89 693.596Z"
          fill="url(#paint0_linear)"/>
    <path d="M917.371 463.324C917.371 459.025 919.182 455.487 922.805 452.711C926.393 449.969 930.845 448.598 936.16 448.598C941.645 448.598 946.147 450.087 949.668 453.066C953.155 456.079 955.118 460.074 955.559 465.051H951.699C951.293 461.158 949.736 458.043 947.027 455.707C944.217 453.27 940.578 452.051 936.109 452.051C931.979 452.051 928.492 453.083 925.648 455.148C922.703 457.247 921.23 459.922 921.23 463.172C921.23 465.812 922.178 467.928 924.074 469.52C925.868 471.043 928.746 472.279 932.707 473.227L941.188 475.309C946.638 476.629 950.531 478.389 952.867 480.59C955.237 482.79 956.422 485.77 956.422 489.527C956.422 494.03 954.526 497.686 950.734 500.496C946.943 503.306 942.102 504.711 936.211 504.711C930.422 504.711 925.598 503.154 921.738 500.039C917.947 496.992 915.898 493.167 915.594 488.562H919.555C919.927 492.219 921.637 495.249 924.684 497.652C927.832 500.09 931.708 501.309 936.312 501.309C940.951 501.309 944.793 500.259 947.84 498.16C950.954 495.993 952.512 493.201 952.512 489.781C952.512 486.938 951.547 484.669 949.617 482.977C947.688 481.25 944.488 479.862 940.02 478.812L931.234 476.68C921.992 474.445 917.371 469.993 917.371 463.324ZM986.738 452.152C981.051 452.152 976.396 454.15 972.773 458.145C969.151 462.139 967.188 467.404 966.883 473.938H1006.14C1006.1 467.471 1004.31 462.224 1000.75 458.195C997.165 454.167 992.493 452.152 986.738 452.152ZM1009.49 488.715C1008.57 493.421 1006.15 497.246 1002.23 500.191C998.13 503.204 993.12 504.711 987.195 504.711C979.714 504.711 973.806 502.24 969.473 497.297C965.038 492.32 962.82 485.465 962.82 476.73C962.82 468.267 965.021 461.462 969.422 456.316C973.789 451.171 979.578 448.598 986.789 448.598C993.831 448.598 999.484 451.018 1003.75 455.859C1008.02 460.667 1010.15 467.048 1010.15 475.004V477.289H966.832V477.492C966.832 484.872 968.694 490.678 972.418 494.91C976.074 499.074 981.017 501.156 987.246 501.156C992.121 501.156 996.217 499.971 999.535 497.602C1002.68 495.367 1004.66 492.405 1005.48 488.715H1009.49ZM1019.49 449.309H1023.2V460.125H1023.35C1025.59 452.44 1030.48 448.598 1038.03 448.598C1039.82 448.598 1041.48 448.902 1043 449.512V453.473C1041.51 452.728 1039.65 452.355 1037.42 452.355C1033.19 452.355 1029.78 454.014 1027.21 457.332C1024.71 460.582 1023.45 464.814 1023.45 470.027V504H1019.49V449.309ZM1070.32 504H1065.65L1045.04 449.309H1049.25L1067.94 499.988H1068.04L1086.78 449.309H1090.94L1070.32 504ZM1118.06 452.152C1112.37 452.152 1107.72 454.15 1104.09 458.145C1100.47 462.139 1098.51 467.404 1098.2 473.938H1137.46C1137.42 467.471 1135.63 462.224 1132.07 458.195C1128.49 454.167 1123.81 452.152 1118.06 452.152ZM1140.81 488.715C1139.89 493.421 1137.47 497.246 1133.55 500.191C1129.45 503.204 1124.44 504.711 1118.52 504.711C1111.03 504.711 1105.13 502.24 1100.79 497.297C1096.36 492.32 1094.14 485.465 1094.14 476.73C1094.14 468.267 1096.34 461.462 1100.74 456.316C1105.11 451.171 1110.9 448.598 1118.11 448.598C1125.15 448.598 1130.8 451.018 1135.07 455.859C1139.34 460.667 1141.47 467.048 1141.47 475.004V477.289H1098.15V477.492C1098.15 484.872 1100.01 490.678 1103.74 494.91C1107.39 499.074 1112.34 501.156 1118.57 501.156C1123.44 501.156 1127.54 499.971 1130.86 497.602C1134 495.367 1135.98 492.405 1136.8 488.715H1140.81ZM1150.81 449.309H1154.52V460.125H1154.67C1156.91 452.44 1161.8 448.598 1169.35 448.598C1171.14 448.598 1172.8 448.902 1174.32 449.512V453.473C1172.83 452.728 1170.97 452.355 1168.74 452.355C1164.51 452.355 1161.1 454.014 1158.53 457.332C1156.03 460.582 1154.77 464.814 1154.77 470.027V504H1150.81V449.309Z"
          fill="url(#paint1_linear)"/>
    <defs>
        <filter id="filter0_b" x="502" y="64" width="334.83" height="408.019" filterUnits="userSpaceOnUse"
                color-interpolation-filters="sRGB">
            <feFlood flood-opacity="0" result="BackgroundImageFix"/>
            <feGaussianBlur in="BackgroundImage" stdDeviation="2"/>
            <feComposite in2="SourceAlpha" operator="in" result="effect1_backgroundBlur"/>
            <feBlend mode="normal" in="SourceGraphic" in2="effect1_backgroundBlur" result="shape"/>
        </filter>
        <linearGradient id="paint0_linear" x1="162" y1="489.222" x2="1176" y2="489.222" gradientUnits="userSpaceOnUse">
            <stop stop-color="#3785DF"/>
            <stop offset="0.142857" stop-color="#8F80E0"/>
            <stop offset="0.285714" stop-color="#CA7AD3"/>
            <stop offset="0.428571" stop-color="#F476BB"/>
            <stop offset="0.571429" stop-color="#FF7C9C"/>
            <stop offset="0.714286" stop-color="#FF8D7D"/>
            <stop offset="0.857143" stop-color="#FFA563"/>
            <stop offset="1" stop-color="#FFC053"/>
        </linearGradient>
        <linearGradient id="paint1_linear" x1="912" y1="405" x2="1176" y2="405" gradientUnits="userSpaceOnUse">
            <stop stop-color="#3785DF"/>
            <stop offset="0.142857" stop-color="#8F80E0"/>
            <stop offset="0.285714" stop-color="#CA7AD3"/>
            <stop offset="0.428571" stop-color="#F476BB"/>
            <stop offset="0.571429" stop-color="#FF7C9C"/>
            <stop offset="0.714286" stop-color="#FF8D7D"/>
            <stop offset="0.857143" stop-color="#FFA563"/>
            <stop offset="1" stop-color="#FFC053"/>
        </linearGradient>
    </defs>
</svg>
