<svg width="169" height="39" viewBox="0 0 169 39" fill="none" xmlns="http://www.w3.org/2000/svg">
    <path d="M56.44 18.272a2.51 2.51 0 011.552.944c.405.512.608 1.099.608 1.76 0 .597-.15 1.125-.448 1.584-.288.448-.71.8-1.264 1.056-.555.256-1.21.384-1.968.384h-4.816V12.832h4.608c.757 0 1.408.123 1.952.368.555.245.97.587 1.248 1.024.288.437.432.933.432 1.488 0 .65-.176 1.195-.528 1.632-.341.437-.8.747-1.376.928zm-4.096-.832h2.048c.533 0 .944-.117 1.232-.352.288-.245.432-.592.432-1.04 0-.448-.144-.795-.432-1.04-.288-.245-.699-.368-1.232-.368h-2.048v2.8zm2.256 4.736c.544 0 .965-.128 1.264-.384.31-.256.464-.619.464-1.088 0-.48-.16-.853-.48-1.12-.32-.277-.752-.416-1.296-.416h-2.208v3.008H54.6zm8.025-5.664a3.17 3.17 0 011.12-1.104c.47-.267 1.003-.4 1.6-.4v2.352h-.592c-.704 0-1.237.165-1.6.496-.352.33-.528.907-.528 1.728V24h-2.24v-8.864h2.24v1.376zm3.653 3.024c0-.896.176-1.69.528-2.384.363-.693.848-1.227 1.456-1.6a3.918 3.918 0 012.064-.56c.661 0 1.237.133 1.728.4.501.267.901.603 1.2 1.008v-1.264h2.256V24h-2.256v-1.296c-.288.416-.688.763-1.2 1.04-.501.267-1.083.4-1.744.4-.747 0-1.43-.192-2.048-.576-.608-.384-1.093-.923-1.456-1.616-.352-.704-.528-1.51-.528-2.416zm6.976.032c0-.544-.107-1.008-.32-1.392a2.189 2.189 0 00-.864-.896 2.265 2.265 0 00-1.168-.32c-.416 0-.8.101-1.152.304-.352.203-.64.501-.864.896-.213.384-.32.843-.32 1.376 0 .533.107 1.003.32 1.408.224.395.512.699.864.912.363.213.747.32 1.152.32.416 0 .805-.101 1.168-.304.363-.213.65-.512.864-.896.213-.395.32-.864.32-1.408zm9.356-4.56c1.056 0 1.91.336 2.56 1.008.65.661.976 1.59.976 2.784V24h-2.24v-4.896c0-.704-.176-1.243-.528-1.616-.352-.384-.832-.576-1.44-.576-.619 0-1.11.192-1.472.576-.352.373-.528.912-.528 1.616V24h-2.24v-8.864h2.24v1.104a3.036 3.036 0 011.136-.896 3.52 3.52 0 011.536-.336zm5.09 4.528c0-.896.176-1.69.528-2.384.363-.693.853-1.227 1.472-1.6a3.918 3.918 0 012.064-.56 3.7 3.7 0 011.648.384c.522.245.938.576 1.248.992V12.16h2.272V24H94.66v-1.312c-.278.437-.667.79-1.168 1.056-.502.267-1.083.4-1.744.4-.747 0-1.43-.192-2.048-.576-.619-.384-1.11-.923-1.472-1.616-.352-.704-.528-1.51-.528-2.416zm6.976.032c0-.544-.107-1.008-.32-1.392a2.19 2.19 0 00-.864-.896 2.265 2.265 0 00-1.168-.32c-.416 0-.8.101-1.152.304-.352.203-.64.501-.864.896-.214.384-.32.843-.32 1.376 0 .533.106 1.003.32 1.408.224.395.512.699.864.912.362.213.746.32 1.152.32.416 0 .805-.101 1.168-.304.362-.213.65-.512.864-.896.213-.395.32-.864.32-1.408zm16.4-3.28c0 .597-.144 1.157-.432 1.68-.277.523-.72.944-1.328 1.264-.597.32-1.355.48-2.272.48h-1.872V24h-2.24V12.832h4.112c.864 0 1.6.15 2.208.448.608.299 1.061.71 1.36 1.232.309.523.464 1.115.464 1.776zm-4.128 1.616c.619 0 1.077-.139 1.376-.416.299-.288.448-.688.448-1.2 0-1.088-.608-1.632-1.824-1.632h-1.776v3.248h1.776zm7.959-1.392c.288-.47.661-.837 1.12-1.104.469-.267 1.002-.4 1.6-.4v2.352h-.592c-.704 0-1.238.165-1.6.496-.352.33-.528.907-.528 1.728V24h-2.24v-8.864h2.24v1.376zm8.164 7.632c-.853 0-1.621-.187-2.304-.56a4.208 4.208 0 01-1.616-1.616c-.384-.693-.576-1.493-.576-2.4 0-.907.198-1.707.592-2.4a4.175 4.175 0 011.648-1.6c.694-.384 1.467-.576 2.32-.576.854 0 1.627.192 2.32.576a4.053 4.053 0 011.632 1.6c.406.693.608 1.493.608 2.4 0 .907-.208 1.707-.624 2.4a4.25 4.25 0 01-1.664 1.616c-.693.373-1.472.56-2.336.56zm0-1.952c.406 0 .784-.096 1.136-.288.363-.203.651-.501.864-.896.214-.395.32-.875.32-1.44 0-.843-.224-1.488-.672-1.936a2.144 2.144 0 00-1.616-.688c-.64 0-1.178.23-1.616.688-.426.448-.64 1.093-.64 1.936s.208 1.493.624 1.952c.427.448.96.672 1.6.672zm8.875-5.216v4.288c0 .299.07.517.208.656.15.128.395.192.736.192h1.04V24h-1.408c-1.888 0-2.832-.917-2.832-2.752v-4.272h-1.056v-1.84h1.056v-2.192h2.256v2.192h1.984v1.84h-1.984zm7.532 7.168c-.854 0-1.622-.187-2.304-.56a4.194 4.194 0 01-1.616-1.616c-.384-.693-.576-1.493-.576-2.4 0-.907.197-1.707.592-2.4a4.162 4.162 0 011.648-1.6c.693-.384 1.466-.576 2.32-.576.853 0 1.626.192 2.32.576a4.065 4.065 0 011.632 1.6c.405.693.608 1.493.608 2.4 0 .907-.208 1.707-.625 2.4a4.247 4.247 0 01-1.663 1.616c-.694.373-1.472.56-2.336.56zm0-1.952c.405 0 .784-.096 1.136-.288.362-.203.65-.501.864-.896.213-.395.32-.875.32-1.44 0-.843-.224-1.488-.672-1.936a2.146 2.146 0 00-1.616-.688c-.64 0-1.179.23-1.616.688-.427.448-.64 1.093-.64 1.936s.208 1.493.624 1.952c.426.448.96.672 1.6.672zm5.691-2.624c0-.917.186-1.717.56-2.4a3.93 3.93 0 011.552-1.6c.661-.384 1.418-.576 2.272-.576 1.098 0 2.005.277 2.72.832.725.544 1.21 1.312 1.456 2.304h-2.416a1.71 1.71 0 00-.656-.896c-.299-.224-.672-.336-1.12-.336-.64 0-1.147.235-1.52.704-.374.459-.56 1.115-.56 1.968 0 .843.186 1.499.56 1.968.373.459.88.688 1.52.688.906 0 1.498-.405 1.776-1.216h2.416c-.246.96-.731 1.723-1.456 2.288-.726.565-1.632.848-2.72.848-.854 0-1.611-.187-2.272-.56a4.065 4.065 0 01-1.552-1.6c-.374-.693-.56-1.499-.56-2.416zm14.137 4.576c-.854 0-1.622-.187-2.304-.56a4.194 4.194 0 01-1.616-1.616c-.384-.693-.576-1.493-.576-2.4 0-.907.197-1.707.592-2.4a4.162 4.162 0 011.648-1.6c.693-.384 1.466-.576 2.32-.576.853 0 1.626.192 2.32.576a4.065 4.065 0 011.632 1.6c.405.693.608 1.493.608 2.4 0 .907-.208 1.707-.624 2.4a4.256 4.256 0 01-1.664 1.616c-.694.373-1.472.56-2.336.56zm0-1.952c.405 0 .784-.096 1.136-.288.362-.203.65-.501.864-.896.213-.395.32-.875.32-1.44 0-.843-.224-1.488-.672-1.936a2.146 2.146 0 00-1.616-.688c-.64 0-1.179.23-1.616.688-.427.448-.64 1.093-.64 1.936s.208 1.493.624 1.952c.426.448.96.672 1.6.672zm8.507-10.032V24h-2.24V12.16h2.24z"
          fill="#000426"/>
    <path d="M9.718 33.649L2 29.787V8.937L14.416 3l7.55 3.866v9.306M9.718 33.65L14.416 36 27 29.787V20.95M9.718 33.649v-9.25m12.248-8.227L27 18.602v2.348m-5.034-4.778l-7.55-3.645-4.698 2.624V24.4m0 0l4.698 2.349L27 20.949"
          stroke="#276ef9" stroke-width="4"/>
</svg>
