<svg width="1924" height="641" viewBox="0 0 1924 641" fill="none" xmlns="http://www.w3.org/2000/svg">
<rect width="1924" height="641" fill="white"/>
<path d="M506.523 478H327.666V165.162H338.506V467.811H506.523V478ZM547.932 244.727H558.555V478H547.932V244.727ZM553.352 181.855C550.461 181.855 547.932 180.844 545.764 178.82C543.74 176.797 542.729 174.34 542.729 171.449C542.729 168.559 543.74 166.102 545.764 164.078C547.932 162.055 550.461 161.043 553.352 161.043C556.242 161.043 558.699 162.055 560.723 164.078C562.746 166.102 563.758 168.559 563.758 171.449C563.758 174.195 562.746 176.652 560.723 178.82C558.699 180.844 556.242 181.855 553.352 181.855ZM636.602 182.289V244.727H686.031V254.482H636.602V427.053C636.602 441.795 639.42 452.346 645.057 458.705C650.549 465.064 659.51 468.244 671.939 468.244L689.934 468.027V478L671.289 478.217C655.391 478.217 643.9 474.242 636.818 466.293C629.592 458.344 625.979 445.336 625.979 427.27V254.482H591.291V244.727H625.979V182.289H636.602ZM806.137 251.23C780.121 251.23 758.875 260.48 742.398 278.98C725.922 297.336 717.033 321.689 715.732 352.041H894.59C894.59 322.123 886.496 297.842 870.309 279.197C853.977 260.553 832.586 251.23 806.137 251.23ZM902.395 413.178C898.348 433.412 888.158 449.672 871.826 461.957C854.627 474.965 833.309 481.469 807.871 481.469C776.219 481.469 751.215 470.918 732.859 449.816C714.07 428.426 704.676 398.941 704.676 361.363C704.676 325.23 713.926 296.18 732.426 274.211C750.926 252.242 775.496 241.258 806.137 241.258C835.766 241.258 859.758 251.592 878.113 272.26C896.324 292.928 905.43 320.027 905.43 353.559V361.797H715.516V362.23C715.516 396.484 723.971 423.367 740.881 442.879C757.502 461.957 779.904 471.496 808.088 471.496C830.635 471.496 849.496 465.859 864.672 454.586C878.836 444.18 887.725 430.377 891.338 413.178H902.395Z" fill="black"/>
<path d="M1125.74 478H946.666V165.162H1125.74V175.352H957.506V312.367H1117.94V322.34H957.506V467.811H1125.74V478ZM1173.44 244.727H1183.41V299.793H1183.84C1188.9 282.305 1198.87 268.213 1213.76 257.518C1228.94 246.678 1246.57 241.258 1266.66 241.258C1292.53 241.258 1313.41 248.99 1329.31 264.455C1345.36 280.209 1353.38 301.094 1353.38 327.109V478H1342.75V327.543C1342.75 304.273 1335.53 285.629 1321.07 271.609C1306.91 258.023 1288.27 251.23 1265.14 251.23C1241.29 251.23 1221.85 259.324 1206.82 275.512C1191.65 291.699 1184.06 312.512 1184.06 337.949V478H1173.44V244.727ZM1491.69 481.469C1462.5 481.469 1438.65 470.34 1420.15 448.082C1401.51 425.68 1392.18 396.773 1392.18 361.363C1392.18 325.809 1401.51 296.902 1420.15 274.645C1438.65 252.387 1462.5 241.258 1491.69 241.258C1514.24 241.258 1534.04 248.268 1551.1 262.287C1567.57 275.729 1578.12 292.639 1582.75 313.018H1583.18V151.504H1594.02V478H1584.05V408.191H1583.62C1578.56 429.293 1567.79 446.637 1551.31 460.223C1534.11 474.387 1514.24 481.469 1491.69 481.469ZM1492.13 251.23C1465.97 251.23 1444.58 261.42 1427.96 281.799C1411.33 302.178 1403.02 328.627 1403.02 361.146C1403.02 393.811 1411.33 420.332 1427.96 440.711C1444.58 461.09 1465.97 471.279 1492.13 471.279C1518.72 471.279 1540.54 461.09 1557.6 440.711C1574.65 420.188 1583.18 393.738 1583.18 361.363C1583.18 328.988 1574.65 302.539 1557.6 282.016C1540.54 261.492 1518.72 251.23 1492.13 251.23Z" fill="#AD2323"/>
</svg>
