<svg width="1924" height="641" viewBox="0 0 1924 641" fill="none" xmlns="http://www.w3.org/2000/svg">
<rect width="1924" height="641" fill="white"/>
<path d="M401.523 504H222.666V191.162H233.506V493.811H401.523V504ZM442.932 270.727H453.555V504H442.932V270.727ZM448.352 207.855C445.461 207.855 442.932 206.844 440.764 204.82C438.74 202.797 437.729 200.34 437.729 197.449C437.729 194.559 438.74 192.102 440.764 190.078C442.932 188.055 445.461 187.043 448.352 187.043C451.242 187.043 453.699 188.055 455.723 190.078C457.746 192.102 458.758 194.559 458.758 197.449C458.758 200.195 457.746 202.652 455.723 204.82C453.699 206.844 451.242 207.855 448.352 207.855ZM531.602 208.289V270.727H581.031V280.482H531.602V453.053C531.602 467.795 534.42 478.346 540.057 484.705C545.549 491.064 554.51 494.244 566.939 494.244L584.934 494.027V504L566.289 504.217C550.391 504.217 538.9 500.242 531.818 492.293C524.592 484.344 520.979 471.336 520.979 453.27V280.482H486.291V270.727H520.979V208.289H531.602ZM701.137 277.23C675.121 277.23 653.875 286.48 637.398 304.98C620.922 323.336 612.033 347.689 610.732 378.041H789.59C789.59 348.123 781.496 323.842 765.309 305.197C748.977 286.553 727.586 277.23 701.137 277.23ZM797.395 439.178C793.348 459.412 783.158 475.672 766.826 487.957C749.627 500.965 728.309 507.469 702.871 507.469C671.219 507.469 646.215 496.918 627.859 475.816C609.07 454.426 599.676 424.941 599.676 387.363C599.676 351.23 608.926 322.18 627.426 300.211C645.926 278.242 670.496 267.258 701.137 267.258C730.766 267.258 754.758 277.592 773.113 298.26C791.324 318.928 800.43 346.027 800.43 379.559V387.797H610.516V388.23C610.516 422.484 618.971 449.367 635.881 468.879C652.502 487.957 674.904 497.496 703.088 497.496C725.635 497.496 744.496 491.859 759.672 480.586C773.836 470.18 782.725 456.377 786.338 439.178H797.395Z" fill="black"/>
<path d="M841.666 504V191.162H1018.79V201.352H852.506V338.801H1005.56V348.99H852.506V504H841.666ZM1061.93 270.727H1071.9V319.072H1072.34C1082.74 284.529 1104.21 267.258 1136.73 267.258C1145.25 267.258 1153.06 268.775 1160.14 271.811V282.867C1152.91 279.254 1144.53 277.447 1134.99 277.447C1115.91 277.447 1100.67 285.107 1089.25 300.428C1078.12 315.314 1072.55 334.754 1072.55 358.746V504H1061.93V270.727ZM1264.64 507.469C1233.71 507.469 1208.92 496.629 1190.28 474.949C1171.34 453.125 1161.88 423.93 1161.88 387.363C1161.88 350.797 1171.34 321.529 1190.28 299.561C1209.06 278.025 1233.85 267.258 1264.64 267.258C1295.42 267.258 1320.21 278.025 1339 299.561C1357.93 321.529 1367.4 350.797 1367.4 387.363C1367.4 423.93 1357.93 453.125 1339 474.949C1320.21 496.629 1295.42 507.469 1264.64 507.469ZM1264.64 497.279C1292.39 497.279 1314.64 487.379 1331.41 467.578C1348.32 447.633 1356.78 420.895 1356.78 387.363C1356.78 353.688 1348.32 326.877 1331.41 306.932C1314.64 287.131 1292.39 277.23 1264.64 277.23C1236.89 277.23 1214.7 287.131 1198.08 306.932C1181.17 326.877 1172.71 353.688 1172.71 387.363C1172.71 421.039 1181.17 447.777 1198.08 467.578C1214.7 487.379 1236.89 497.279 1264.64 497.279ZM1407.51 270.727H1417.48V325.793H1417.91C1422.97 308.305 1432.94 294.213 1447.83 283.518C1463.01 272.678 1480.64 267.258 1500.73 267.258C1526.6 267.258 1547.48 274.99 1563.38 290.455C1579.43 306.209 1587.45 327.094 1587.45 353.109V504H1576.82V353.543C1576.82 330.273 1569.6 311.629 1555.14 297.609C1540.98 284.023 1522.34 277.23 1499.21 277.23C1475.36 277.23 1455.92 285.324 1440.89 301.512C1425.72 317.699 1418.13 338.512 1418.13 363.949V504H1407.51V270.727ZM1661.81 208.289V270.727H1711.24V280.482H1661.81V453.053C1661.81 467.795 1664.63 478.346 1670.26 484.705C1675.76 491.064 1684.72 494.244 1697.15 494.244L1715.14 494.027V504L1696.5 504.217C1680.6 504.217 1669.11 500.242 1662.03 492.293C1654.8 484.344 1651.19 471.336 1651.19 453.27V280.482H1616.5V270.727H1651.19V208.289H1661.81Z" fill="#AD2323"/>
</svg>
