<svg width="529" height="168" viewBox="0 0 529 168" fill="none" xmlns="http://www.w3.org/2000/svg">
<path d="M528.6 0H0V167.1H528.6V0Z" fill="#F20018"/>
<path d="M178 111H152.5L145.1 99.7L137.7 111H112.2L132.8 83.7999L112.7 57.3999H137.8L145.2 68.8999L152.5 57.3999H177.6L157.4 83.7999L178 111Z" fill="white"/>
<path d="M240.699 111H218.799V79.7999C218.799 76.8999 218.299 74.9 217.199 73.7C216.199 72.5 214.599 71.9999 212.499 71.9999C211.299 71.9999 209.999 72.2999 208.899 72.8999C207.699 73.4999 206.699 74.1999 205.799 75.0999V111H183.899V57.2999H205.799V61.5999C207.399 59.8999 209.499 58.5999 211.899 57.5999C214.399 56.5999 216.899 56.0999 219.499 56.0999C226.799 56.0999 232.199 58.0999 235.599 62.0999C238.999 66.0999 240.699 71.9999 240.699 79.7999V111Z" fill="white"/>
<path d="M305.4 111H283.5V108.2C281.6 109.4 279.4 110.4 277 111.2C274.6 111.9 271.8 112.3 268.5 112.3C264.7 112.3 261.4 111.8 258.8 110.9C256.1 110 254 108.7 252.3 107.1C250.6 105.5 249.4 103.6 248.7 101.4C247.9 99.2 247.6 96.8 247.6 94.1C247.6 90.9 248.3 88.3001 249.8 86.2001C251.3 84.1001 253.2 82.4001 255.6 81.2001C258 80.0001 260.7 79.1 263.9 78.6C267 78.1 270.2 77.9 273.5 77.9H283.7V75C283.7 73.3 283.2 72 282.3 70.9C281.3 69.9 280.1 69.3 278.6 69.3C276.7 69.3 275.2 69.7 274.1 70.6C273 71.5 272.2 72.9 271.7 75H250.2C251.2 68.4 254 63.6 258.8 60.6C263.6 57.6 270.4 56 279.3 56C284.8 56 289.2 56.6001 292.6 57.7001C296 58.9001 298.7 60.4001 300.6 62.2001C302.5 64.0001 303.8 66.1 304.5 68.4C305.2 70.7 305.6 72.9 305.6 75.1V111H305.4ZM283.4 88.7001H278.2C275.3 88.7001 273.3 89.0001 272 89.7001C270.8 90.4001 270.1 91.6 270.1 93.4C270.1 94.8 270.6 96 271.6 96.8C272.6 97.7001 274.1 98.1 276 98.1C277.2 98.1 278.2 98.0001 279.1 97.7001C280 97.4001 280.7 97.2001 281.3 96.8C281.9 96.5 282.4 96.2 282.7 95.9C283 95.6 283.3 95.4 283.4 95.3V88.7001Z" fill="white"/>
<path d="M405.699 111H383.699V79.8C383.699 76.9 383.199 74.9001 382.199 73.7001C381.199 72.5001 379.599 72 377.499 72C376.499 72 375.399 72.2 374.399 72.6C373.299 73 372.099 73.8 370.799 75V111H348.899V79.8C348.899 76.9 348.399 74.9001 347.299 73.7001C346.299 72.5001 344.699 72 342.599 72C340.099 72 337.799 73 335.799 75.1V111H313.899V57.3H335.799V61.6C337.299 60 339.199 58.8001 341.599 57.7001C343.999 56.7001 346.599 56.1 349.499 56.1C358.099 56.1 363.999 58.9 367.399 64.4C369.499 61.9 371.999 59.9 375.099 58.3C378.099 56.8 381.299 56 384.499 56C391.799 56 397.199 58 400.599 62C403.999 66 405.699 71.9001 405.699 79.7001V111Z" fill="white"/>
<path d="M471.8 84.2C471.8 84.8 471.8 85.2999 471.8 85.8999C471.8 86.3999 471.7 86.9999 471.7 87.3999C471.6 87.8999 471.6 88.3999 471.6 88.7999H434.4C434.9 91.9999 435.7 94.1999 436.9 95.5999C438.1 96.9999 439.7 97.5999 441.9 97.5999C444.9 97.5999 446.9 96.1999 448.1 93.4999H470.9C469.3 99.6999 466.1 104.4 461.2 107.6C456.3 110.8 449.9 112.4 441.9 112.4C432 112.4 424.5 110 419.4 105.1C414.3 100.2 411.7 93.1999 411.7 84.0999C411.7 74.9999 414.3 68 419.4 63.2C424.5 58.4 432 55.8999 441.9 55.8999C451.7 55.8999 459.2 58.3 464.3 63.2C469.2 68.1 471.8 75 471.8 84.2ZM448.9 77.4999C448.2 72.2999 445.8 69.7 441.7 69.7C437.6 69.7 435.2 72.2999 434.3 77.4999H448.9Z" fill="white"/>
<path d="M113.5 57.2998H112.7L113.5 58.3998V57.2998Z" fill="white"/>
<path d="M91.4998 57.2998V87.7998C91.4998 90.7998 91.0998 92.7998 90.1998 93.8998C89.3998 94.9998 87.5998 95.5997 85.0998 95.5997C83.7998 95.5997 82.7998 95.4998 81.9998 95.1998C81.1998 94.8998 80.4998 94.4998 80.0998 93.8998C79.5998 93.2998 79.2998 92.4998 79.0998 91.4998C78.8998 90.4998 78.7998 89.2998 78.7998 87.7998V57.2998H56.7998V87.7998C56.7998 91.3998 57.2998 94.6998 58.3998 97.4998C59.4998 100.4 61.1998 102.8 63.4998 104.8C65.7998 106.8 68.6998 108.3 72.2998 109.4C75.8998 110.5 80.0998 111 85.0998 111C90.0998 111 94.3998 110.5 97.8998 109.4C101.5 108.3 104.4 106.8 106.7 104.8C109 102.8 110.7 100.4 111.8 97.4998C112.9 94.5998 113.4 91.3998 113.4 87.7998V70.9998L103.1 57.3998H91.4998V57.2998Z" fill="white"/>
</svg>
